<?xml version="1.0" encoding="UTF-8"?><svg id="Layer_1" xmlns="http://www.w3.org/2000/svg" xmlns:xlink="http://www.w3.org/1999/xlink" viewBox="0 0 100 100"><defs><style>.cls-1{fill:#000;}.cls-1,.cls-2{stroke-width:0px;}.cls-2{fill:none;}.cls-3{clip-path:url(#clippath);}</style><clipPath id="clippath"><rect class="cls-2" width="100" height="100"/></clipPath></defs><g class="cls-3"><path class="cls-1" d="M76.96,46.43l-23.96-20.88c-1.18-1.03-2.93-1.02-4.11,0l-23.85,20.88c-2.17,1.9-.83,5.47,2.06,5.47,1.72,0,3.12,1.4,3.12,3.12v18.23c0,1.72,1.4,3.12,3.12,3.12h10.94v-15.98c0-.97.79-1.76,1.76-1.76h9.93c.97,0,1.76.79,1.76,1.76v15.98h10.38c1.72,0,3.12-1.4,3.12-3.12v-18.23c0-1.72,1.4-3.12,3.12-3.12h.55c2.88,0,4.22-3.58,2.05-5.48"/></g></svg>